<?xml version="1.0" encoding="iso-8859-1"?>
<!-- Generator: Adobe Illustrator 17.1.0, SVG Export Plug-In . SVG Version: 6.00 Build 0)  -->
<!DOCTYPE svg PUBLIC "-//W3C//DTD SVG 1.1//EN" "http://www.w3.org/Graphics/SVG/1.1/DTD/svg11.dtd">
<svg version="1.1" id="Capa_1" xmlns="http://www.w3.org/2000/svg" xmlns:xlink="http://www.w3.org/1999/xlink" x="0px" y="0px"
	 viewBox="0 0 312 312" style="enable-background:new 0 0 312 312;" xml:space="preserve">
<path d="M280.333,114c4.143,0,6.667-3.357,6.667-7.5v-33c0-4.143-2.524-7.5-6.667-7.5h-33C243.19,66,239,69.357,239,73.5v1.842
	L73,27.771V7.5C73,3.357,69.976,0,65.833,0h-33C28.69,0,25,3.357,25,7.5v16.667v0.012V40.5c0,4.143,3.69,7.5,7.833,7.5H41v216
	h-8.167C28.69,264,25,267.357,25,271.5v16.32v0.012V304.5c0,4.143,3.69,7.5,7.833,7.5h33c4.143,0,7.167-3.357,7.167-7.5v-20.271
	l166-47.572v1.842c0,4.143,4.19,7.5,8.333,7.5h33c4.143,0,6.667-3.357,6.667-7.5v-33c0-4.143-2.524-7.5-6.667-7.5H271v-84H280.333z
	 M139,249.771V164h52v70.914L139,249.771z M139,149V62.229l52,14.857V149H139z M65.833,48c3.18,0,5.725-1.982,6.816-4.776
	L124,57.944V149H56V48H65.833z M56,164h68v90.056l-51.351,14.719c-1.091-2.794-3.635-4.776-6.816-4.776H56V164z M247.333,198
	c-4.143,0-8.333,3.357-8.333,7.5v15.557l-33,9.571V164h50v34H247.333z M256,149h-50V81.372l33,9.571V106.5
	c0,4.143,4.19,7.5,8.333,7.5H256V149z"/>
<g>
</g>
<g>
</g>
<g>
</g>
<g>
</g>
<g>
</g>
<g>
</g>
<g>
</g>
<g>
</g>
<g>
</g>
<g>
</g>
<g>
</g>
<g>
</g>
<g>
</g>
<g>
</g>
<g>
</g>
</svg>
