<?xml version="1.0" encoding="iso-8859-1"?>
<!-- Generator: Adobe Illustrator 18.0.0, SVG Export Plug-In . SVG Version: 6.00 Build 0)  -->
<!DOCTYPE svg PUBLIC "-//W3C//DTD SVG 1.1//EN" "http://www.w3.org/Graphics/SVG/1.1/DTD/svg11.dtd">
<svg version="1.1" id="Capa_1" xmlns="http://www.w3.org/2000/svg" xmlns:xlink="http://www.w3.org/1999/xlink" x="0px" y="0px"
	 viewBox="0 0 392.291 392.291" style="enable-background:new 0 0 392.291 392.291;" xml:space="preserve">
<g>
	<path d="M304.2,190.072c-0.58-0.411-58.391-42.766-88.637-184.14c-0.803-3.753-4.324-6.304-8.123-5.889
		c-3.816,0.403-6.711,3.621-6.711,7.458v150.445c-1.494-0.23-3.025-0.35-4.582-0.35c-1.559,0-3.09,0.12-4.586,0.351V7.502
		c0-3.837-2.896-7.055-6.711-7.458c-3.822-0.414-7.32,2.136-8.123,5.889c-15.732,73.528-39.033,119.714-55.811,145.511
		c-18.117,27.857-32.705,38.541-32.826,38.629c-1.934,1.37-3.107,3.573-3.162,5.942c-0.057,2.369,1.012,4.626,2.879,6.085
		c0.512,0.401,48.771,38.648,62.973,91.379h-8.834c-4.143,0-7.5,3.357-7.5,7.5v54.587l-6.4,27.527
		c-0.518,2.228,0.01,4.571,1.434,6.362c1.422,1.792,3.584,2.836,5.873,2.836h121.586c2.287,0,4.449-1.044,5.873-2.836
		c1.422-1.791,1.949-4.134,1.432-6.362l-6.398-27.527v-54.587c0-4.143-3.357-7.5-7.5-7.5h-8.832
		c14.186-52.61,62.461-90.979,62.971-91.379c1.867-1.459,2.934-3.716,2.879-6.085C307.306,193.646,306.134,191.443,304.2,190.072z
		 M196.148,172.598c8.262,0,14.984,6.724,14.984,14.988c0,8.263-6.723,14.984-14.984,14.984c-8.266,0-14.99-6.722-14.99-14.984
		C181.157,179.321,187.882,172.598,196.148,172.598z M144.796,377.291l3.107-13.363h96.484l3.107,13.363H144.796z M242.845,308.479
		v40.449h-93.398v-40.449H242.845z M226.048,293.479h-59.807c-11.24-47.41-46.984-83.608-62.254-97.297
		c14.398-13.542,47.236-51.175,72.574-130.765v99.487c-6.365,5.504-10.404,13.627-10.404,22.682
		c0,16.533,13.453,29.984,29.99,29.984c16.533,0,29.984-13.451,29.984-29.984c0-9.055-4.039-17.178-10.402-22.681V65.417
		c25.336,79.59,58.174,117.223,72.572,130.765C273.034,209.871,237.288,246.069,226.048,293.479z"/>
</g>
<g>
</g>
<g>
</g>
<g>
</g>
<g>
</g>
<g>
</g>
<g>
</g>
<g>
</g>
<g>
</g>
<g>
</g>
<g>
</g>
<g>
</g>
<g>
</g>
<g>
</g>
<g>
</g>
<g>
</g>
</svg>
